<svg xmlns="http://www.w3.org/2000/svg" viewBox="0 0 360 360"><path d="M0 0h360v360H0z" style="fill:#3f3fff"/><path d="M246.11 72.65c-1.23 0-4.48 2.15-8 3.79a79.39 79.39 0 0 1-10.58 3.94A60.51 60.51 0 0 1 208.19 83c-7.47 0-16.41-1.32-27.35-4.1q-7.4-1.89-14.91-3.24a83.92 83.92 0 0 0-14.6-1.45A82.25 82.25 0 0 0 132 76.45a74 74 0 0 0-18.75 7.3 3 3 0 0 0-1.53 2.77v34.41c0 1.48.68 2.16 1.85 2.16a3.14 3.14 0 0 0 1.63-.57 61.24 61.24 0 0 1 16.8-6.81 79 79 0 0 1 19.36-2.46 83.56 83.56 0 0 1 14.6 1.38c5.23.93 10.17 2.1 14.91 3.23 12.32 2.94 21.4 4.3 27.35 4.3a66.44 66.44 0 0 0 19.36-3.07 74.08 74.08 0 0 0 10.55-4.09 58 58 0 0 0 7.85-4.53 3 3 0 0 0 1.54-2.77V74.36c0-1.09-.37-1.71-1.41-1.71M245.06 150.43h-85.73q-21.53 0-34.58 13.06t-13.06 34.57v87a2.17 2.17 0 0 0 2.46 2.46h35a2.17 2.17 0 0 0 2.46-2.46v-79.31q0-7.38 4.3-11.68t11.68-4.3h77.44a2.17 2.17 0 0 0 2.46-2.46v-34.42a2.19 2.19 0 0 0-2.47-2.46" style="fill:#fff"/></svg>