<svg xmlns="http://www.w3.org/2000/svg" xml:space="preserve" x="0px" y="0px" viewBox="0 0 690 560"><path fill="#474747" d="M660.918 236.38H523.741l45.093-135.28c4.622-13.865-2.87-28.85-16.735-33.472-13.862-4.618-28.85 2.871-33.472 16.736l-55.651 166.954-49.357-33.02 60.493-63.902c10.047-10.613 9.588-27.361-1.025-37.408-10.613-10.046-27.36-9.587-37.408 1.025l-66.678 70.434-77.062-51.555a26.462 26.462 0 0 0-40.59 27.527l25.87 120.98-57.053 60.267 13.467-140.789a26.461 26.461 0 0 0-38.053-26.248l-83.996 41.452 67.394-170.548c5.37-13.592-1.294-28.964-14.886-34.335-13.593-5.368-28.964 1.294-34.335 14.886L37.143 264.457a26.464 26.464 0 0 0 36.321 33.455l102.966-50.815-16.271 170.104a26.463 26.463 0 0 0 45.558 20.712l84.931-89.716 24.965 116.75c2.657 12.426 13.635 20.933 25.851 20.933 1.833 0 3.694-.192 5.56-.591 14.291-3.057 23.398-17.118 20.343-31.41l-32.571-152.317 41.919-44.281 154.193 103.157c12.144 8.123 28.58 4.869 36.707-7.278 8.127-12.147 4.867-28.582-7.278-36.708l-40.582-27.15h141.164c14.615 0 26.462-11.847 26.462-26.462-.001-14.613-11.847-26.46-26.463-26.46zm-339.551 2.385-4.619-21.602 15.349 10.268-10.73 11.334z"/><g fill="#CCEBE6"><path d="M519.799 497.491c0-1.268.042-2.39-1.708-2.823-4.652-1.15-8.352.263-10.963 4.483-6.437 10.4-12.869 20.803-19.491 31.51-6.306-10.391-12.665-20.295-18.386-30.555-2.539-4.555-5.649-6.068-10.556-5.502-2.096.242-3.052.568-3.042 2.928.078 19.194.072 38.388.005 57.582-.008 2.236.678 3.179 2.957 2.959 1.403-.135 2.849-.176 4.242.002 3.255.417 4.324-.766 4.256-4.14-.213-10.694-.111-21.395-.038-32.093.009-1.256-.71-2.791.911-3.983l19.779 30.095 19.326-29.554 1.321.341v31.445c0 8.5-.005 8.421 8.395 7.913 2.186-.132 3.041-.758 3.033-3.026-.062-19.194-.035-38.388-.041-57.582zM446.05 498.17c-.002-1.171.505-3.037-1.092-3.198-3.099-.313-6.464-.739-9.322.152-2.396.747-1.05 3.912-1.076 5.956-.131 10.303-.06 20.608-.06 30.913l-1.053.166c-1.993-2.424-3.992-4.841-5.977-7.272-7.56-9.26-15.221-18.44-22.611-27.834-2.48-3.153-5.673-2.748-8.552-2.164-2.689.546-1.309 3.482-1.321 5.298-.107 16.681-.064 33.362-.063 50.044.001 8.096.001 7.937 7.971 7.879 3.001-.022 3.709-1.024 3.651-3.833-.167-8.023-.062-16.051-.064-24.077v-13.877c4.478 5.345 8.029 9.461 11.445 13.686 7.021 8.685 14.03 17.383 20.907 26.182 1.697 2.171 3.802 2.163 5.912 1.693 2.199-.49 1.278-2.604 1.283-4.005.06-18.569.049-37.139.022-55.709zM99.89 497.739c-.002-.892-.168-2.432-.606-2.571-3.037-.961-6.267-.769-9.302-.246-2.679.462-1.397 3.141-1.415 4.793-.117 10.785-.06 21.573-.06 33.632-1.404-1.545-1.844-1.989-2.239-2.47-9.284-11.31-18.657-22.549-27.779-33.989-2.41-3.022-5.403-2.446-8.144-2.011-2.937.466-1.515 3.382-1.525 5.155-.107 17.942.017 35.885-.135 53.826-.028 3.277.854 4.701 4.188 4.197a6.198 6.198 0 0 1 1.884-.001c4.101.659 5.663-.643 5.501-5.174-.375-10.532-.146-21.086-.079-31.631.008-1.244-.707-2.797 1.171-3.989l11.228 13.825c6.746 8.305 13.576 16.544 20.18 24.959 1.695 2.16 3.656 2.22 5.834 1.892 1.788-.269 1.305-1.903 1.307-3.066.026-19.043.026-38.087-.009-57.131zM624.225 494.678c-1.569.083-3.165.172-4.716-.017-3.102-.378-4.001.797-3.948 3.929.192 11.312.075 22.628.075 35.363-3.089-3.833-5.307-6.628-7.572-9.386-7.587-9.24-15.283-18.393-22.733-27.741-2.386-2.993-5.322-2.062-8.172-2.007-1.6.031-1.237 1.564-1.238 2.584-.02 19.355.013 38.711-.048 58.066-.007 2.17.938 2.716 2.834 2.593 1.254-.081 2.536-.156 3.772.013 3.556.488 4.88-.64 4.761-4.528-.304-9.905-.101-19.825-.1-29.738v-7.881c4.395 5.383 7.883 9.629 11.343 13.898 7.032 8.675 14.117 17.308 21.021 26.084 1.644 2.09 3.541 2.364 5.799 2.088 1.781-.218 1.594-1.64 1.594-2.888.005-19.198-.011-38.396.03-57.594.004-1.963-.631-2.948-2.702-2.838zM246.144 530.409c7.284-5.089 9.417-12.315 7.447-20.757-1.833-7.854-8.27-13.381-16.729-14.487-8.301-1.085-16.667-.083-24.983-.544-3.617-.2-4.462 1.015-4.425 4.506.18 17.15-.001 34.303.114 51.454.057 8.513-1.899 7.21 7.878 7.525 2.849.092 3.962-.721 3.786-3.685-.224-3.763-.045-7.55-.053-11.326-.017-8.296-.01-8.047 8.373-8.391 4.039-.166 6.224 1.087 7.967 4.728 2.642 5.519 5.939 10.723 8.898 16.094.8 1.452 1.583 2.616 3.527 2.543 2.945-.112 5.896-.029 9.68-.029-4.489-8.062-8.379-15.25-12.487-22.31-1.342-2.304-1.432-3.616 1.007-5.321zm-3.754-11.807c-.993 3.426-3.115 5.623-6.865 6.204-4.398.681-8.805.168-13.193.449-2.551.163-3.344-.897-3.189-3.303.151-2.352.033-4.721.033-7.083-.002-10.696-.002-10.696 11.939-10.523 9.455.137 13.789 5.579 11.275 14.256zM562.496 548.341c-2.834 0-5.673.107-8.5-.028-4.665-.224-11.042 2.048-13.517-.956-2.352-2.855-.53-9.01-.897-13.686-.244-3.115 1.027-3.631 3.76-3.547 5.977.183 11.97-.119 17.944.112 4.13.16 3.082-2.638 3.049-4.754-.032-2.056 1.24-4.959-2.954-4.811-5.975.21-11.967-.071-17.945.108-2.764.083-4.082-.54-3.839-3.613.248-3.129.195-6.302.009-9.439-.146-2.455.641-3.276 3.16-3.216 6.766.161 13.551-.192 20.304.142 4.357.215 3.794-2.374 3.88-5.079.092-2.92.134-5.088-4.024-4.976-10.384.278-20.783.234-31.169.009-3.385-.073-3.85 1.298-3.806 4.16.14 9.129.052 18.262.05 27.394-.002 9.446.025 18.893-.023 28.339-.011 2.104.109 3.616 2.927 3.589 11.335-.11 22.671-.036 34.007-.061 1.043-.002 2.173.198 2.838-1.108 2.155-4.23-.48-8.579-5.254-8.579zM38.646 548.271c-6.915.238-13.849-.079-20.766.131-3.152.096-4.622-.619-4.334-4.097.285-3.438.303-6.94-.004-10.374-.297-3.316 1.096-3.916 4.026-3.815 5.815.199 11.642.1 17.463.025 1.223-.016 2.761.697 3.294-1.552 1.377-5.813-.099-7.87-6.03-7.863-2.045.002-4.091.005-6.137.005-12.885.001-12.802.002-12.605-12.763.04-2.627.67-3.533 3.387-3.461 6.761.178 13.542-.177 20.292.148 4.168.201 3.665-2.294 3.561-4.795-.102-2.425 1.148-5.394-3.542-5.262-10.377.294-20.771.234-31.15.005-3.485-.077-4.146 1.206-4.083 4.343.184 9.122.065 18.251.066 27.377 0 9.441.043 18.882-.031 28.322-.017 2.195.247 3.479 2.992 3.447 11.17-.129 22.345-.175 33.513.017 4.445.076 3.113-2.91 3.165-5.116.05-2.139 1.036-4.864-3.077-4.722zM347.327 498.597c-1.105-2.987-2.538-4.09-5.789-4.046-3.268.044-5.029.825-6.242 4.116-6.346 17.225-12.934 34.361-19.491 51.508-3.176 8.305-3.231 8.19 5.654 7.949 2.097-.057 3.174-.682 3.742-2.616.704-2.397 1.654-4.725 2.277-7.14.739-2.864 2.266-3.97 5.343-3.813 5.339.272 10.715.297 16.051-.007 3.423-.195 5.289.883 5.963 4.255.272 1.363 1.197 2.604 1.417 3.966.71 4.403 2.979 6.366 6.737 5.262 6.699-.014 6.73-.026 4.733-5.317-6.808-18.036-13.706-36.038-20.395-54.117zm-.076 36.284c-4.677-.08-9.355-.027-14.595-.027l8.497-22.661c2.827 7.357 5.361 13.884 7.834 20.434.578 1.527.049 2.284-1.736 2.254zM196.111 548.263c-3.107.358-6.296.208-9.436.043-4.645-.243-11.137 2.112-13.442-1.016-2.358-3.201-.643-9.342-.889-14.188-.115-2.26.634-3.017 2.905-2.965 5.664.129 11.352-.235 16.995.132 4 .26 4.998-1.04 4.939-4.928-.054-3.603-.822-5.168-4.664-4.676-2.478.318-5.03.067-7.549.067-12.784-.003-12.657-.004-12.682-12.696-.006-3.09 1.021-3.599 3.741-3.53 6.765.174 13.545-.132 20.304.132 4.451.174 3.2-2.823 3.248-5.061.049-2.308 1.075-5.08-3.324-4.971-10.541.26-21.095.185-31.64.014-2.949-.048-3.716.89-3.664 3.742.166 9.285.062 18.575.062 27.863-.001 9.131.149 18.265-.079 27.39-.084 3.378.594 4.628 4.312 4.524 10.225-.285 20.471-.329 30.692.015 4.246.143 4.796-1.462 4.77-5.118-.024-3.507-.631-5.231-4.599-4.773zM679.946 499.228c-.319-1.874 1.193-4.615-2.739-4.584-13.694.11-27.389.103-41.082.014-4.508-.029-2.829 3.202-3.002 5.343-.185 2.28-.664 4.905 3.263 4.622 3.445-.248 6.947.209 10.378-.123 3.632-.352 4.434.971 4.388 4.45-.2 14.951-.008 29.907-.155 44.859-.031 3.136.586 4.817 4.083 4.267 1.075-.169 2.216-.15 3.298-.005 3.27.438 4.356-.814 4.251-4.171-.24-7.705-.076-15.423-.073-23.136.003-4.722-.111-9.448.038-14.165.123-3.881-1.739-8.942.755-11.32 2.461-2.347 7.524-.919 11.37-.596 4.487.375 5.937-1.281 5.227-5.455zM154.005 499.33c.188-2.187.881-4.763-3.141-4.71-13.527.176-27.057.064-40.587.081-1.058.001-2.71-.341-2.865.927-.321 2.615-.596 5.423.048 7.909.519 2.004 3.02.916 4.624.989 3.297.149 6.614.194 9.906-.007 2.507-.153 3.203.716 3.157 3.181-.148 7.863-.055 15.731-.053 23.596l.002 19.822c0 6.968.006 6.784 6.9 7.01 3.421.112 4.539-.684 4.48-4.367-.243-15.098-.027-30.204-.168-45.305-.028-2.974.609-4.22 3.832-3.957 3.594.293 7.237-.066 10.848.098 4.575.209 2.838-3.179 3.017-5.267zM305.465 494.655c-13.688.091-27.376.09-41.064-.01-4.554-.033-2.77 3.241-2.957 5.34-.199 2.233-.775 4.936 3.214 4.626 3.284-.255 6.623.178 9.903-.105 3.559-.307 4.787.672 4.714 4.527-.261 13.841-.102 27.689-.101 41.534.001 7.68.003 7.503 7.793 7.57 3.063.026 3.644-1.005 3.58-3.783-.175-7.705-.061-15.417-.06-23.127.001-7.709.151-15.423-.075-23.126-.088-2.987.828-3.785 3.692-3.596 3.759.249 7.552-.043 11.323.086 4.192.143 2.862-2.946 2.848-4.958-.014-1.99 1.409-5.006-2.81-4.978zM385.04 526.433c-.003-9.435-.086-18.87.051-28.303.038-2.615-.634-3.822-3.398-3.46a14.439 14.439 0 0 1-3.767-.006c-3.197-.432-4.328.633-4.296 4.066.17 18.396.163 36.795.003 55.191-.028 3.296.861 4.642 4.174 4.142a9.513 9.513 0 0 1 2.824.004c3.405.526 4.628-.585 4.508-4.278-.294-9.109-.096-18.235-.099-27.356z"/></g><linearGradient id="a" x1="25.84" x2="677.9294" y1="238.2697" y2="238.2697" gradientUnits="userSpaceOnUse"><stop offset="0" style="stop-color:#bbe9bb"/><stop offset="1" style="stop-color:#34baa2"/></linearGradient><path fill="url(#a)" d="M651.468 225.039H514.291l45.093-135.28c4.622-13.865-2.87-28.85-16.735-33.472-13.862-4.618-28.85 2.871-33.472 16.736l-55.651 166.954-49.357-33.02 60.493-63.902c10.047-10.612 9.588-27.361-1.025-37.408-10.612-10.046-27.36-9.587-37.408 1.025l-66.678 70.434-77.062-51.555a26.462 26.462 0 0 0-40.59 27.527l25.87 120.98-57.053 60.267 13.467-140.789a26.461 26.461 0 0 0-38.053-26.248l-83.996 41.452 67.394-170.548c5.37-13.592-1.294-28.964-14.886-34.335-13.593-5.368-28.964 1.294-34.335 14.886L27.692 253.117a26.464 26.464 0 0 0 36.321 33.455l102.966-50.815-16.271 170.103a26.463 26.463 0 0 0 45.558 20.712l84.931-89.716 24.965 116.75c2.657 12.426 13.635 20.933 25.851 20.933 1.833 0 3.694-.192 5.56-.591 14.291-3.057 23.398-17.118 20.343-31.41l-32.571-152.317 41.919-44.281 154.193 103.157c12.144 8.123 28.58 4.869 36.707-7.278 8.127-12.147 4.867-28.582-7.278-36.708l-40.582-27.15h141.164c14.615 0 26.462-11.847 26.462-26.462-.001-14.613-11.847-26.46-26.462-26.46zm-339.552 2.385-4.619-21.602 15.349 10.268-10.73 11.334z"/></svg>