<svg width="37" height="35" viewBox="0 0 37 35" fill="none" xmlns="http://www.w3.org/2000/svg">
<path fill-rule="evenodd" clip-rule="evenodd" d="M8.17857 0C7.72253 0 7.35284 0.369689 7.35284 0.825723C7.35284 4.93003 10.68 8.25723 14.7844 8.25723H21.3901C21.8462 8.25723 22.2159 7.88754 22.2159 7.4315C22.2159 3.3272 18.8887 0 14.7843 0H8.17857ZM0.746948 14.4026C0.746948 11.6412 2.98552 9.40259 5.74695 9.40259H28.8215C32.9258 9.40259 36.253 12.7298 36.253 16.8341C36.253 20.9384 32.9258 24.2656 28.8215 24.2656C28.6912 24.2656 28.5618 24.2622 28.4331 24.2556C26.9514 30.4195 21.4027 35 14.7842 35C7.03165 35 0.746948 28.7153 0.746948 20.9627V14.4026ZM28.8215 20.9627C28.8215 21.1354 28.8184 21.3075 28.8122 21.4787L28.8215 21.4787C31.3867 21.4787 33.4662 19.3992 33.4662 16.834C33.4662 14.2688 31.3867 12.1893 28.8215 12.1893L28.8215 20.9627Z" fill="white"/>
</svg>
